<?xml version="1.0" encoding="UTF-8"?>
<svg width="1200pt" height="1200pt" version="1.1" viewBox="0 0 1200 1200" xmlns="http://www.w3.org/2000/svg">
 <path d="m460.8 528c66.273 0 120-53.727 120-120s-53.727-120-120-120c-66.273 0-120 53.727-120 120s53.727 120 120 120z"/>
 <path d="m460.8 912c66.273 0 120-53.727 120-120s-53.727-120-120-120c-66.277 0-120 53.727-120 120s53.723 120 120 120z"/>
 <path d="m787.19 720c66.273 0 120-53.727 120-120s-53.727-120-120-120c-66.277 0-120 53.727-120 120s53.723 120 120 120z"/>
</svg>
