<?xml version="1.0" encoding="UTF-8"?><svg id="Layer_5" xmlns="http://www.w3.org/2000/svg" viewBox="0 0 260.56404 260.36441"><path d="M26.92598.24359l203.93834-.24359c13.9457,1.1804,23.97887,9.46671,28.60663,22.60101,1.47683,71.81469,1.43027,144.07235.02323,215.892-4.42253,11.23516-11.54225,18.73446-23.66192,21.85591l-211.28839.01549c-12.63246-2.66885-21.2489-11.25112-24.52189-23.84079l-.02198-212.70965C4.02469,10.79546,13.42861,2.10394,26.92598.24359ZM165.30499,152.3237,170.65362,100.03588" fill="#025376"/><g id="Grouped_Logo"><path id="Circle" d="M74.25766,88.38063c.70264-7.50224,2.65714-14.64362,6.43584-21.20199,8.36604-14.52021,23.42899-23.51541,40.16547-24.53395l13.49393,23.23257c-11.08366-3.82425-24.46289-1.33322-31.09742,8.94128-6.67212,10.33272-6.33418,28.22787,1.83049,37.70713,5.25006,6.09537,12.54896,8.51214,20.50415,8.29032l10.70411,20.42135c-19.66701,4.48937-40.81981-2.3711-52.69555-18.84952-5.35068-7.42444-8.77789-16.7201-9.34103-25.86012v-8.14708Z" fill="#fff"/><polygon id="Bolt" points="186.30637 42.01985 186.30637 112.82188 163.43138 112.82188 184.75552 160.34653 164.59451 160.34653 164.98466 218.34456 129.11888 149.67773 147.34134 149.67773 118.26295 94.58793 157.42184 94.58793 127.37418 42.01985 186.30637 42.01985" fill="#fff"/></g></svg>