<?xml version="1.0" encoding="UTF-8"?><svg id="Qikr_Logo" xmlns="http://www.w3.org/2000/svg" viewBox="0 0 147.74516 241.59137"><g id="Grouped_Logo"><path id="Circle" d="M7.61933,59.79933c.86848-9.27296,3.28429-18.0999,7.95487-26.20622C25.91484,15.64574,44.53305,4.52744,65.21978,3.2685l16.67886,28.71607c-13.6997-4.72687-30.23678-1.64789-38.43723,11.05166-8.24692,12.77151-7.82921,34.89039,2.26253,46.60701,6.48921,7.53404,15.51085,10.52123,25.34367,10.24706l13.23057,25.24133c-24.30894,5.54898-50.45436-2.93074-65.1331-23.29851-6.61358-9.1768-10.84971-20.66649-11.54576-31.96379v-10.07001Z"/><polygon id="Bolt" points="146.1145 2.49617 146.1145 90.00936 117.8404 90.00936 144.19761 148.75108 119.27806 148.75108 119.76029 220.43818 75.42924 135.56416 97.95268 135.56416 62.01103 67.47171 110.41245 67.47171 73.27275 2.49617 146.1145 2.49617"/></g></svg>