<?xml version="1.0" encoding="UTF-8"?><svg id="Layer_1" xmlns="http://www.w3.org/2000/svg" viewBox="0 0 327.75594 327.75594"><circle cx="163.87797" cy="163.87797" r="163.87797" fill="#4c86c6"/><g id="Grouped_Logo"><path id="Circle" d="M86.19912,120.82328c.86848-9.27296,3.28429-18.0999,7.95487-26.20622,10.34064-17.94736,28.95886-29.06567,49.64559-30.32461l16.67886,28.71607c-13.6997-4.72687-30.23678-1.64789-38.43723,11.05166-8.24692,12.77151-7.82921,34.89039,2.26253,46.60701,6.48921,7.53404,15.51085,10.52123,25.34367,10.24706l13.23057,25.24133c-24.30894,5.54898-50.45436-2.93074-65.1331-23.29851-6.61358-9.1768-10.84971-20.66649-11.54576-31.96379v-10.07001Z" fill="#fff"/><polygon id="Bolt" points="224.69429 63.52013 224.69429 151.03331 196.42019 151.03331 222.7774 209.77503 197.85785 209.77503 198.34008 281.46213 154.00903 196.58812 176.53247 196.58812 140.59082 128.49567 188.99224 128.49567 151.85254 63.52013 224.69429 63.52013" fill="#fff"/></g></svg>