<?xml version="1.0" standalone="no"?>
<!DOCTYPE svg PUBLIC "-//W3C//DTD SVG 20010904//EN"
 "http://www.w3.org/TR/2001/REC-SVG-20010904/DTD/svg10.dtd">
<svg version="1.0" xmlns="http://www.w3.org/2000/svg"
 width="301.000000pt" height="302.000000pt" viewBox="0 0 301.000000 302.000000"
 preserveAspectRatio="xMidYMid meet">

<g transform="translate(0.000000,302.000000) scale(0.100000,-0.100000)"
fill="#4d87c3" stroke="none">
<path d="M1185 2930 c-334 -50 -592 -277 -681 -601 -26 -93 -26 -348 0 -439
87 -303 307 -513 616 -591 68 -17 344 -19 360 -3 9 9 -11 54 -75 171 l-87 160
-75 11 c-100 14 -189 58 -247 122 -83 94 -116 191 -116 350 0 174 39 281 136
369 62 57 118 85 203 102 59 11 166 8 220 -7 l24 -7 -26 44 c-15 24 -64 108
-109 187 -45 78 -85 141 -88 141 -3 -1 -27 -5 -55 -9z"/>
<path d="M1762 2920 c-189 -4 -345 -9 -347 -11 -2 -2 102 -186 231 -407 129
-222 234 -408 234 -413 0 -5 -21 -9 -47 -9 -89 -1 -593 -27 -597 -31 -1 -2
106 -204 240 -449 133 -245 241 -446 239 -448 -1 -2 -70 -6 -152 -10 l-149 -7
204 -385 c112 -212 239 -452 283 -535 l79 -150 -6 456 -7 456 78 6 c43 4 126
7 184 7 58 0 112 4 119 9 10 6 -40 106 -203 411 -119 221 -214 404 -212 406 2
2 86 -7 188 -20 101 -13 185 -23 186 -22 1 1 -2 209 -7 461 -5 253 -10 513
-10 578 l0 117 -92 -2 c-51 -1 -247 -5 -436 -8z"/>
</g>
</svg>
